Patient4_TMGait_0pt6_01_right_37_EMG.mot
version=1
nRows=23
nColumns=33
inDegrees=no
endheader
time	1LAddLong	2LGlutMax	3LGlutMed	4LIliopsoas	5LSemiMemb	6LBicFemLong	7LRecFem	8LVastMed	9LVastLat	10LGasMed	11LTibAnt	12lTibPost	13LPeroneusLong	14LSol	15LExtDigLong	16LFlexDigLong	17RAddLong	18RGlutMax	19RGlutMed	20RIliopsoas	21RSemiMemb	22RBicFemLong	23RRecFem	24RVastMed	25RVastLat	26RGasMed	27RTibAnt	28RTibPost	29RPeroneusLong	30RSol	31RExtDigLong	32RFlexDigLong
45.325	-0.005493	0.29388	0.028992	-0.002441	-0.013275	0.20004	0.077362	0.006561	-0.035248	0.030518	0.005188	0.002747	0.025177	0.054626	-0.007629	-0.000458	0.003662	-0.088501	-0.059052	0.039215	0.39917	0.04837	0.019379	0.007477	-0.010834	0.03952	-0.017548	0.12756	-0.46524	0.80994	-0.00473	0.018005
45.326	-0.012665	0.27374	0.031738	-0.004425	-0.097961	0.32471	0.058136	0.013428	-0.05722	0.027313	0.006866	0.014191	0.035095	0.03418	0.007019	0.010986	0.021057	0.007782	-0.10727	0.035706	0.37872	-0.093536	0.050507	0.031586	0.001068	-0.048218	-0.0354	0.004272	-0.071869	0.37262	-0.003967	0.006866
45.327	-0.02182	0.19073	0.031891	-0.009155	-0.13367	0.1651	0.054932	0.014191	-0.072632	0.028687	0.003204	-0.003967	0.076599	0.040131	0.000916	0.002594	0.003967	-0.081177	-0.18478	0.041962	0.28473	-0.17807	0.020142	0.053101	-0.009613	-0.14191	-0.001831	-0.07431	0.60318	-0.24323	-0.001831	-0.011139
45.328	-0.033417	0.18662	0.035706	0.002594	-0.10346	0.071716	0.032043	0.011749	-0.068359	0.03067	-0.000916	-0.007172	0.060883	0.044708	0.007324	0.007324	0.004272	-0.052185	-0.10468	0.012207	0.1648	-0.22278	0.050812	0.026855	-0.013123	-0.12604	0.006409	-0.068817	0.74661	-0.20447	-0.002441	-0.013275
45.329	-0.005951	0.15243	0.034637	0.016174	-0.11078	0.098724	0.012207	0.010529	-0.04303	0.034027	0.008545	0.007172	0.050354	0.068817	0.000458	-0.002136	-0.027618	-0.015717	0.32745	-0.053558	0.012207	-0.14435	0.026398	0.053711	-0.00473	-0.067291	0.033264	-0.18875	0.37231	1.1565	-0.005341	-0.010681
45.33	0.005188	0.2092	0.022583	0.004425	0.029602	-0.043182	-0.050964	0.007477	0.003815	0.028229	0.007324	-0.00473	0.034943	0.033722	0.005035	-0.000763	-0.020905	0.008698	0.2359	-0.042572	0.035858	-0.14526	0.005035	-0.003357	-0.010376	-0.032959	0.01297	-0.054169	0.19882	1.4575	-0.005188	-0.007629
45.331	0.028687	0.12772	0.020142	-0.00061	0.1944	-0.33234	-0.090485	-0.002289	0.12222	0.021667	0.007629	0.012512	0.016327	0.066071	-0.004272	0.00473	-0.019836	0.02594	0.098419	-0.001068	0.044708	-0.13306	0.015259	0.011139	0.002747	-0.019531	0.014648	0.17548	0.23209	0.20706	-0.003815	-0.006256
45.332	0.010529	0.075073	0.012817	-0.00946	0.097351	-0.46967	-0.14862	0.037231	0.19424	0.011292	0.010376	-0.000153	-0.000458	-0.006714	-0.006256	0.000458	0.035095	-0.014038	0.064545	-0.060577	0.013885	-0.021973	0.038757	-0.019684	-0.019836	0.003815	0.021057	0.27924	0.14481	0.11017	-0.001831	-0.009003
45.333	0.001373	0.065765	0.000763	-0.014648	0.001373	-0.31326	-0.15411	0.055542	0.18951	0.013275	0.006409	0.015869	-0.016785	-0.040588	-0.00351	0.007629	0.067902	-0.050812	-0.010986	-0.1297	0.049286	0.011292	0.071411	-0.092621	-0.010681	0.015717	0.061798	0.1506	0.094147	1.0596	-0.002899	-0.001984
45.334	-0.013733	-0.01358	-0.013428	0.014954	-0.081635	-0.24628	-0.043488	0.040588	0.19379	-0.001831	-0.001984	-0.000458	-0.003662	-0.031433	0.003357	0.011902	0.077972	0.056458	-0.066986	-0.15442	0.042725	0.040283	0.067749	-0.14664	-0.007324	0.007172	0.062714	0.023193	0.24567	1.3335	-0.00412	-0.003357
45.335	-0.008087	-0.075073	-0.041504	0.031281	-0.10025	-0.24506	0.020447	0.026398	0.18417	0.007324	-0.00885	0.01358	-0.004425	-0.020447	0.009308	0.003967	0.060425	0.024719	-0.16434	-0.086823	-0.10422	0.11963	0.048981	-0.14771	-0.005341	0.007019	0.032196	0.003052	0.19928	0.49484	-0.002747	-0.003662
45.336	-0.007782	-0.15747	-0.06546	0.040283	-0.048981	-0.25848	0.05661	-0.000458	0.15656	0.004883	-0.013275	0.011749	0.006866	0.006409	0.002289	0.01358	0.021362	0.030212	0.13886	0.000458	-0.29968	0.30029	0.005646	-0.006409	0.009308	0.001221	0.04364	0.037537	-0.10162	0.36148	-0.004578	0.005035
45.337	0.016022	-0.2121	-0.081635	0.023956	-0.007324	-0.23712	-0.024261	-0.022888	0.073242	0.000763	-0.005035	-0.001984	0.032806	0.021057	0.016327	0.014496	-0.000458	0.024872	0.13016	0.098572	-0.16235	0.16998	0.03067	0.059662	0.010071	0.004272	0.041351	-0.022125	-0.23529	0.54672	-0.004272	0.005951
45.338	0.017853	-0.23468	-0.084686	0.004578	0.034943	-0.20004	-0.00824	-0.030518	0.00885	0.01358	-0.001831	0.01358	0.003967	0.041351	0.022583	0.00946	-0.029297	0.087128	0.14481	0.084229	0.09079	-0.026703	0.026703	0.025482	0.001373	0.007324	0.02182	-0.0177	-0.233	0.25787	-0.003052	0.007629
45.339	0.013123	-0.25925	-0.07019	-0.000305	0.0737	-0.10483	0.075989	-0.038605	-0.012665	0.013123	-0.056915	0.01297	-0.13016	0.034943	0.033569	0.015717	-0.010681	0.071869	-0.019684	0.083923	-0.039368	-0.087128	0.014801	0.00412	0.011749	0.009613	0.006561	-0.016632	-0.31342	-0.083008	-0.002289	0.006714
45.34	0.014496	-0.27145	-0.053406	-0.014343	0.071716	-0.000458	0.075531	-0.021515	-0.003052	0.024109	0.026398	0.009003	0.045471	0.053558	0.034637	0.021515	0.006104	0.11063	0.058136	0.067902	-0.072174	-0.12512	-0.005951	-0.00351	0.010681	0.00885	0.007324	-0.13001	-0.33951	-0.010681	-0.007019	0.002289
45.341	0.014648	-0.23254	-0.041504	-0.007629	0.080872	0.1445	0.076447	-0.005035	0.006714	-0.003052	0.01709	0.019073	0.75668	0.11398	0.036926	0.021667	-0.00824	0.12802	0.18753	-0.028381	-0.086365	0.053101	-0.004425	0.02533	0.009003	0.015869	-0.012817	-0.3743	-0.1683	-0.20142	-0.010071	-0.007629
45.342	0.010986	-0.17288	-0.041962	-0.001373	0.08316	0.19302	0.062866	-0.003052	0.006256	-0.018921	0.029297	0.013733	0.2385	0.14358	0.026398	0.024261	-0.012054	0.11185	0.18372	-0.055542	-0.10574	0.1297	-0.065613	0.086975	0.035095	0.023041	-0.016937	0.19226	0.10391	-0.33356	-0.004425	-0.007782
45.343	0.003815	-0.15442	-0.041351	0.000763	-0.014648	0.21271	0.058594	-0.014343	0.026703	-0.002289	0.021973	0.01236	-0.35934	0.18723	0.020447	0.032501	0.0354	0.080261	0.097351	-0.12528	-0.035248	0.12253	-0.04837	0.032806	0.016174	0.004578	0.012817	0.06546	0.21149	-0.24368	-0.003052	-0.014191
45.344	-0.001526	-0.10437	-0.029907	0.003967	-0.022888	0.15549	0.09552	-0.014191	0.067139	-0.020447	0.006866	0.026093	-0.53863	0.26123	0.03067	0.037079	0.054016	0.033417	0.15625	-0.13519	-0.007324	-0.021515	0.003357	0.021362	0.006409	-0.026398	0.02594	-0.084229	0.43167	-0.28885	-0.004578	-0.019836
45.345	-0.023041	-0.10803	-0.019379	0.005951	-0.032959	0.12405	0.10925	-0.010834	0.054932	0.002747	0.000763	0.025024	-0.020905	0.26016	-0.049744	0.033569	0.079193	0.051117	0.14358	-0.10178	0.043793	-0.18814	-0.021057	-0.017548	0.00351	-0.005646	0.045013	-0.069275	0.45013	-0.40771	-0.00412	-0.015869
45.346	-0.031128	-0.095367	-0.001984	0.014954	-0.017395	0.2211	0.080872	-0.002136	0.054779	0.043488	-0.029449	0.014038	0.77881	0.20584	-0.11795	0.037079	0.097198	0.077515	0.062256	-0.062714	0.15198	-0.32257	-0.025177	0.041504	0.012665	0.03006	0.056458	0.039978	0.39368	-0.39612	-0.003967	-0.010681
45.347	-0.020905	-0.10315	-0.00351	-0.003357	-0.018158	0.21133	0.035858	0.014191	0.058746	0.015259	-0.032196	0.019073	1.0832	0.20386	-0.078888	0.034943	0.078278	0.041199	0.011749	-0.037079	0.23712	-0.40955	-0.018616	0.009155	-0.019531	0.03952	0.063171	0.074463	-0.13168	-0.51819	-0.003815	-0.011597
